<svg xmlns="http://www.w3.org/2000/svg" width="24" height="24" viewBox="0 0 24 24"><g transform="translate(-1180 -381)"><rect width="24" height="24" rx="12" transform="translate(1180 381)" fill="#252525"/><g transform="translate(1180.5 379.625)"><path d="M18.149,17.389a2.1,2.1,0,1,1-2.1-2.1A2.1,2.1,0,0,1,18.149,17.389Z" transform="translate(-4.554 -3.572)" fill="#fff"/><path d="M17.387,9.625H15.4a.592.592,0,0,1-.437-.2c-1.035-1.159-1.425-1.553-1.848-1.553H10c-.427,0-.846.394-1.885,1.557a.58.58,0,0,1-.434.193H7.529V9.333a.292.292,0,0,0-.292-.292H6.29A.292.292,0,0,0,6,9.333v.292H5.725A1.182,1.182,0,0,0,4.5,10.744V17.16a1.262,1.262,0,0,0,1.221,1.214H17.387A1.168,1.168,0,0,0,18.5,17.16V10.744A1.087,1.087,0,0,0,17.387,9.625ZM11.645,16.93a3.117,3.117,0,1,1,2.967-2.967A3.12,3.12,0,0,1,11.645,16.93ZM15,11.739a.474.474,0,1,1,.474-.474A.473.473,0,0,1,15,11.739Z" transform="translate(0 0)" fill="#fff"/></g></g></svg>